<?xml version="1.0" encoding="UTF-8"?>
<svg id="Layer_1" data-name="Layer 1" xmlns="http://www.w3.org/2000/svg" viewBox="0 0 557.14 45.92">
  <defs>
    <style>
      .cls-1 {
        fill: #d9d8ec;
      }
    </style>
  </defs>
  <path class="cls-1" d="M34.66,41.83v-23.5l-9.62,18.17h-3.74l-9.62-17.63v22.97h-7.48V3.9h6.41l12.82,22.97L35.73,3.9h6.41v37.93h-7.48Z"/>
  <path class="cls-1" d="M45.51,3.9h16.17c11.19,0,19.28,7.46,19.28,19.28,0,11.19-8.08,18.66-19.28,18.66h-16.17V3.9ZM61.05,34.99c6.84,0,11.81-4.97,11.81-11.82,0-7.46-4.97-11.82-11.81-11.82h-7.46v23.63h7.46Z"/>
  <path class="cls-1" d="M84,22.87c0-11.28,7.69-18.97,18.45-18.97,5.64,0,10.25,2.05,13.84,6.66l-5.13,4.61c-2.56-2.56-5.13-4.1-8.71-4.1-6.15,0-10.76,4.61-10.76,11.79,0,6.66,4.61,11.79,10.76,11.79,3.59,0,6.15-1.54,8.71-4.61l5.13,5.13c-3.59,4.1-8.2,6.66-14.35,6.66-10.25,0-17.94-8.2-17.94-18.97Z"/>
  <path class="cls-1" d="M149.5,35.11l-2.16,6.7h-7.92l15.12-37.91h7.68l15.13,37.91h-8.16l-10.8-29.51-4.8,12.24-3.12,8.4-.96,2.16Z"/>
  <path class="cls-1" d="M182.2,3.9h7.59v37.93h-7.59V3.9Z"/>
  <path class="cls-1" d="M221.93,26.89v14.94h-8.05V3.9h8.05v22.99ZM246.06,3.9v37.93h-8.05v-14.94h-8.05v-8.05h8.05V3.9h8.05Z"/>
  <path class="cls-1" d="M260.44,35.11l-2.16,6.7h-7.92l15.12-37.91h7.68l15.13,37.91h-8.16l-10.8-29.51-4.8,12.24-3.12,8.4-.96,2.16Z"/>
  <path class="cls-1" d="M291.77,22.87c0-11.28,7.69-18.97,18.45-18.97,5.64,0,10.25,2.05,13.84,6.66l-5.13,4.61c-2.56-2.56-5.13-4.1-8.71-4.1-6.15,0-10.76,4.61-10.76,11.79,0,6.66,4.61,11.79,10.76,11.79,3.59,0,6.15-1.54,8.71-4.61l5.13,5.13c-3.59,4.1-8.2,6.66-14.35,6.66-10.25,0-17.94-8.2-17.94-18.97Z"/>
  <path class="cls-1" d="M340.94,27.11l-4.91,5.36v9.37h-8.03V3.9h8.03v17.85l15.62-17.85h8.92l-14.73,16.96,15.62,20.98h-9.37l-11.16-14.73Z"/>
  <path class="cls-1" d="M375.28,35.11l-2.16,6.7h-7.92l15.12-37.91h7.68l15.13,37.91h-8.16l-10.8-29.51-4.8,12.24-3.12,8.4-.96,2.16Z"/>
  <path class="cls-1" d="M416.14,11.05h-11V3.9h30.24v7.15h-11v30.79h-8.25V11.05Z"/>
  <path class="cls-1" d="M447.71,26.89v14.94h-8.05V3.9h8.05v22.99ZM471.85,3.9v37.93h-8.05v-14.94h-8.05v-8.05h8.05V3.9h8.05Z"/>
  <path class="cls-1" d="M476.33,23.26c0-11.61,7.74-19.35,18.58-19.35s18.58,7.74,18.58,19.35c0,10.84-7.74,18.58-18.58,18.58s-18.58-7.74-18.58-18.58ZM505.75,23.26c0-6.97-4.65-12.39-10.84-12.39s-10.84,5.42-10.84,12.39,4.65,11.61,10.84,11.61,10.84-4.64,10.84-11.61Z"/>
  <path class="cls-1" d="M551.2,3.9v37.93h-6.6l-17.32-23.09v23.09h-8.25V3.9h6.6l17.32,23.09V3.9h8.25Z"/>
</svg>